<svg width="510" height="510" viewBox="0 0 510 510" fill="none" xmlns="http://www.w3.org/2000/svg">
<path d="M254.841 253.689C271.947 254.144 288.856 249.97 303.755 241.613C317.052 234.08 327.374 222.283 333.026 208.158L287.766 185.242C280.172 200.092 269.097 207.532 254.54 207.56C249.742 207.663 244.974 206.78 240.536 204.966C236.098 203.152 232.086 200.447 228.751 197.02C225.173 193.074 222.419 188.462 220.649 183.452C218.878 178.442 218.126 173.133 218.435 167.832C218.131 162.603 218.888 157.367 220.66 152.434C222.432 147.501 225.183 142.971 228.751 139.113C232.107 135.726 236.127 133.058 240.563 131.274C244.999 129.491 249.756 128.629 254.54 128.744C269.126 128.744 280.201 136.169 287.766 151.019L333.026 128.104C327.374 113.979 317.052 102.181 303.755 94.6487C288.851 86.3038 271.946 82.1301 254.841 82.5724C237.696 82.2509 220.717 85.9498 205.283 93.3685C191.178 100.043 179.317 110.623 171.127 123.834C162.937 137.044 158.768 152.323 159.12 167.832C158.807 183.388 162.988 198.708 171.169 211.98C179.35 225.252 191.188 235.92 205.283 242.722C220.685 250.253 237.675 254.028 254.841 253.732" fill="#FFA300"/>
<path d="M296.964 10.7962C296.992 7.93662 296.762 5.08031 296.276 2.26166C296.211 1.84346 296.026 1.45253 295.744 1.13498C295.463 0.817422 295.095 0.58649 294.686 0.469413C292.479 0.155068 290.253 -0.0018005 288.023 1.55887e-05C277.489 0.00551799 267.205 3.18678 258.532 9.12274C249.859 15.0587 243.206 23.4695 239.454 33.2419C233.547 27.4838 225.596 24.2647 217.318 24.2807C215.692 24.3009 214.069 24.4292 212.461 24.6647C212.065 26.6895 211.863 28.747 211.859 30.8096C211.859 34.9432 212.68 39.0363 214.274 42.8547C215.869 46.6731 218.206 50.142 221.152 53.0629C224.099 55.9838 227.596 58.2995 231.444 59.8775C235.292 61.4555 239.416 62.2648 243.58 62.2592H244.998C258.758 62.2592 271.956 56.8413 281.698 47.1938C291.44 37.5463 296.93 24.4568 296.964 10.7962Z" fill="#3C8533"/>
<path fill-rule="evenodd" clip-rule="evenodd" d="M128 351C128 306.817 163.817 271 208 271H289C333.183 271 369 306.817 369 351V375.902C369 381.654 363.067 385.569 357.484 384.185C351.725 382.758 345.701 382 339.5 382C298.355 382 265 415.355 265 456.5C265 470.403 268.809 483.417 275.439 494.555C279.116 500.731 275.094 510 267.906 510H152C138.745 510 128 499.255 128 486V351Z" fill="#3C8533"/>
<rect x="351" y="498" width="23" height="83" rx="8" transform="rotate(-180 351 498)" fill="#3C8533"/>
<rect x="298" y="466" width="19" height="83" rx="8" transform="rotate(-90 298 466)" fill="#3C8533"/>
</svg>
