<svg width="488" height="488" viewBox="0 0 488 488" fill="none" xmlns="http://www.w3.org/2000/svg">
<circle cx="244" cy="244" r="244" fill="#3C8533"/>
<path d="M246.869 431.913C272.217 432.588 297.272 426.402 319.349 414.019C339.052 402.857 354.347 385.376 362.722 364.445L295.656 330.49C284.404 352.494 267.993 363.518 246.423 363.56C239.313 363.712 232.248 362.403 225.672 359.716C219.096 357.028 213.15 353.019 208.209 347.942C202.907 342.094 198.827 335.26 196.203 327.836C193.579 320.413 192.464 312.546 192.923 304.691C192.473 296.944 193.594 289.185 196.22 281.875C198.845 274.565 202.922 267.853 208.209 262.137C213.181 257.117 219.138 253.163 225.711 250.52C232.284 247.877 239.334 246.601 246.423 246.771C268.035 246.771 284.446 257.774 295.656 279.778L362.722 245.823C354.347 224.892 339.052 207.411 319.349 196.249C297.264 183.884 272.215 177.699 246.869 178.355C221.464 177.878 196.304 183.359 173.434 194.352C152.534 204.243 134.959 219.919 122.823 239.495C110.687 259.071 104.509 281.711 105.031 304.691C104.567 327.743 110.762 350.444 122.884 370.109C135.007 389.775 152.548 405.583 173.434 415.663C196.257 426.822 221.432 432.415 246.869 431.976" fill="#FFA300"/>
<path d="M309.286 71.9976C309.328 67.7604 308.987 63.5279 308.267 59.3513C308.17 58.7316 307.896 58.1523 307.479 57.6818C307.061 57.2112 306.517 56.8691 305.91 56.6956C302.64 56.2298 299.341 55.9973 296.038 56C280.429 56.0082 265.189 60.7221 252.338 69.5179C239.486 78.3138 229.628 90.7768 224.068 105.257C215.316 96.7251 203.533 91.9551 191.267 91.9788C188.858 92.0087 186.454 92.1988 184.07 92.5478C183.484 95.5481 183.185 98.5969 183.179 101.653C183.179 107.778 184.395 113.843 186.758 119.501C189.121 125.16 192.584 130.3 196.95 134.628C201.315 138.956 206.497 142.387 212.2 144.726C217.902 147.064 224.013 148.263 230.182 148.255H232.284C252.673 148.255 272.23 140.227 286.665 125.931C301.1 111.636 309.235 92.2397 309.286 71.9976Z" fill="white"/>
</svg>
