<svg width="510" height="510" viewBox="0 0 510 510" fill="none" xmlns="http://www.w3.org/2000/svg">
<path d="M264.742 253.689C281.848 254.144 298.757 249.97 313.656 241.613C326.952 234.08 337.274 222.283 342.926 208.158L297.666 185.242C290.073 200.092 278.998 207.532 264.441 207.56C259.643 207.663 254.875 206.78 250.437 204.966C245.999 203.152 241.986 200.447 238.652 197.02C235.074 193.074 232.32 188.462 230.549 183.452C228.779 178.442 228.026 173.133 228.336 167.832C228.032 162.603 228.789 157.367 230.561 152.434C232.332 147.501 235.084 142.971 238.652 139.113C242.007 135.726 246.028 133.058 250.463 131.274C254.899 129.491 259.657 128.629 264.441 128.744C279.026 128.744 290.101 136.169 297.666 151.019L342.926 128.104C337.274 113.979 326.952 102.181 313.656 94.6487C298.752 86.3038 281.847 82.1301 264.742 82.5724C247.597 82.2509 230.618 85.9498 215.183 93.3685C201.079 100.043 189.218 110.623 181.028 123.834C172.838 137.044 168.668 152.323 169.021 167.832C168.708 183.388 172.889 198.708 181.07 211.98C189.25 225.252 201.088 235.92 215.183 242.722C230.586 250.253 247.575 254.028 264.742 253.732" fill="#FFA300"/>
<path d="M301.964 10.7962C301.992 7.93662 301.762 5.08031 301.276 2.26166C301.211 1.84346 301.026 1.45253 300.744 1.13498C300.463 0.817422 300.095 0.58649 299.686 0.469413C297.479 0.155068 295.253 -0.0018005 293.023 1.55887e-05C282.489 0.00551799 272.205 3.18678 263.532 9.12274C254.859 15.0587 248.206 23.4695 244.454 33.2419C238.547 27.4838 230.596 24.2647 222.318 24.2807C220.692 24.3009 219.069 24.4292 217.461 24.6647C217.065 26.6895 216.863 28.747 216.859 30.8096C216.859 34.9432 217.68 39.0363 219.274 42.8547C220.869 46.6731 223.206 50.142 226.152 53.0629C229.099 55.9838 232.596 58.2995 236.444 59.8775C240.292 61.4555 244.416 62.2648 248.58 62.2592H249.998C263.758 62.2592 276.956 56.8413 286.698 47.1938C296.44 37.5463 301.93 24.4568 301.964 10.7962Z" fill="#3C8533"/>
<path d="M411.066 294.707C423.049 295.026 434.893 292.101 445.33 286.247C454.644 280.971 461.875 272.707 465.834 262.812L434.129 246.76C428.81 257.163 421.052 262.374 410.855 262.394C407.494 262.466 404.155 261.847 401.046 260.577C397.937 259.306 395.126 257.411 392.79 255.011C390.284 252.246 388.355 249.016 387.115 245.506C385.874 241.997 385.347 238.278 385.564 234.565C385.351 230.902 385.881 227.234 387.123 223.779C388.364 220.323 390.291 217.15 392.79 214.448C395.141 212.075 397.957 210.206 401.064 208.956C404.172 207.707 407.504 207.104 410.855 207.184C421.072 207.184 428.83 212.385 434.129 222.787L465.834 206.736C461.875 196.841 454.644 188.577 445.33 183.3C434.89 177.455 423.048 174.531 411.066 174.841C399.056 174.616 387.162 177.207 376.351 182.404C366.471 187.079 358.162 194.49 352.425 203.744C346.689 212.998 343.768 223.701 344.014 234.565C343.795 245.462 346.724 256.193 352.455 265.49C358.185 274.787 366.477 282.259 376.351 287.025C387.14 292.3 399.041 294.944 411.066 294.737" fill="#FFA300"/>
<path d="M440.573 124.563C440.593 122.56 440.431 120.559 440.091 118.584C440.045 118.291 439.916 118.017 439.719 117.795C439.521 117.573 439.264 117.411 438.977 117.329C437.431 117.109 435.872 116.999 434.31 117C426.931 117.004 419.727 119.232 413.651 123.39C407.576 127.548 402.916 133.44 400.287 140.286C396.15 136.252 390.58 133.997 384.781 134.008C383.643 134.023 382.506 134.112 381.379 134.277C381.102 135.696 380.961 137.137 380.958 138.582C380.958 141.477 381.533 144.345 382.65 147.019C383.767 149.694 385.404 152.124 387.468 154.17C389.531 156.216 391.981 157.838 394.677 158.944C397.372 160.049 400.261 160.616 403.178 160.612H404.171C413.81 160.612 423.055 156.817 429.879 150.059C436.703 143.301 440.549 134.132 440.573 124.563Z" fill="#3C8533"/>
<path d="M103.066 294.707C115.049 295.026 126.893 292.101 137.33 286.247C146.644 280.971 153.875 272.707 157.834 262.812L126.129 246.76C120.81 257.163 113.052 262.374 102.855 262.394C99.4943 262.466 96.1545 261.847 93.0457 260.577C89.9369 259.306 87.1263 257.411 84.7903 255.011C82.2841 252.246 80.355 249.016 79.1147 245.506C77.8743 241.997 77.3473 238.278 77.5643 234.565C77.3514 230.902 77.8813 227.234 79.1225 223.779C80.3638 220.323 82.2911 217.15 84.7903 214.448C87.141 212.075 89.957 210.206 93.0643 208.956C96.1716 207.707 99.504 207.104 102.855 207.184C113.072 207.184 120.83 212.385 126.129 222.787L157.834 206.736C153.875 196.841 146.644 188.577 137.33 183.3C126.89 177.455 115.048 174.531 103.066 174.841C91.0564 174.616 79.1625 177.207 68.351 182.404C58.4709 187.079 50.1624 194.49 44.4255 203.744C38.6885 212.998 35.7677 223.701 36.0144 234.565C35.7952 245.462 38.7241 256.193 44.4546 265.49C50.1851 274.787 58.4775 282.259 68.351 287.025C79.1402 292.3 91.0413 294.944 103.066 294.737" fill="#FFA300"/>
<path d="M132.573 124.563C132.593 122.56 132.431 120.559 132.091 118.584C132.045 118.291 131.916 118.017 131.719 117.795C131.521 117.573 131.264 117.411 130.977 117.329C129.431 117.109 127.872 116.999 126.31 117C118.931 117.004 111.727 119.232 105.651 123.39C99.5761 127.548 94.9158 133.44 92.2873 140.286C88.15 136.252 82.58 133.997 76.7814 134.008C75.6426 134.023 74.5059 134.112 73.3792 134.277C73.1018 135.696 72.9607 137.137 72.9576 138.582C72.9576 141.477 73.5326 144.345 74.6496 147.019C75.7667 149.694 77.4039 152.124 79.4676 154.17C81.5313 156.216 83.9811 157.838 86.6768 158.944C89.3725 160.049 92.2612 160.616 95.1778 160.612H96.1714C105.81 160.612 115.055 156.817 121.879 150.059C128.703 143.301 132.549 134.132 132.573 124.563Z" fill="#3C8533"/>
<path fill-rule="evenodd" clip-rule="evenodd" d="M99.9259 308C106.244 308 110.208 315.098 107.834 320.954C104.072 330.231 102 340.373 102 351V486C102 499.255 112.745 510 126 510H24C10.7452 510 0 499.255 0 486V388C0 343.817 35.8172 308 80 308H99.9259Z" fill="#3C8533"/>
<path d="M134 351C134 306.817 169.817 271 214 271H295C339.183 271 375 306.817 375 351V486C375 499.255 364.255 510 351 510H158C144.745 510 134 499.255 134 486V351Z" fill="#3C8533"/>
<path fill-rule="evenodd" clip-rule="evenodd" d="M410.074 308C403.756 308 399.792 315.098 402.166 320.954C405.928 330.231 408 340.373 408 351V486C408 499.255 397.255 510 384 510H486C499.255 510 510 499.255 510 486V388C510 343.817 474.183 308 430 308H410.074Z" fill="#3C8533"/>
</svg>
