<svg width="175" height="254" viewBox="0 0 175 254" fill="none" xmlns="http://www.w3.org/2000/svg">
<path d="M95.8412 253.689C112.947 254.144 129.856 249.97 144.755 241.613C158.052 234.08 168.374 222.283 174.026 208.158L128.766 185.242C121.172 200.092 110.097 207.532 95.5403 207.56C90.7421 207.663 85.9743 206.78 81.5362 204.966C77.0982 203.152 73.0858 200.447 69.7511 197.02C66.1733 193.074 63.4193 188.462 61.6486 183.452C59.878 178.442 59.1257 173.133 59.4353 167.832C59.1314 162.603 59.8879 157.367 61.6599 152.434C63.4319 147.501 66.1833 142.971 69.7511 139.113C73.1068 135.726 77.1269 133.058 81.5628 131.274C85.9986 129.491 90.7559 128.629 95.5403 128.744C110.126 128.744 121.201 136.169 128.766 151.019L174.026 128.104C168.374 113.979 158.052 102.181 144.755 94.6487C129.851 86.3038 112.946 82.1301 95.8412 82.5724C78.6963 82.2509 61.7169 85.9498 46.2828 93.3685C32.1782 100.043 20.3172 110.623 12.1273 123.834C3.93743 137.044 -0.232308 152.323 0.119979 167.832C-0.192943 183.388 3.9882 198.708 12.1689 211.98C20.3496 225.252 32.1876 235.92 46.2828 242.722C61.6851 250.253 78.6749 254.028 95.8412 253.732" fill="#FFA300"/>
<path d="M137.964 10.7962C137.992 7.93662 137.762 5.08031 137.276 2.26166C137.211 1.84346 137.026 1.45253 136.744 1.13498C136.463 0.817422 136.095 0.58649 135.686 0.469413C133.479 0.155068 131.252 -0.0018005 129.023 1.55887e-05C118.489 0.00551799 108.205 3.18678 99.5317 9.12274C90.8586 15.0587 84.2057 23.4695 80.4534 33.2419C74.5471 27.4838 66.5955 24.2647 58.3176 24.2807C56.6918 24.3009 55.0692 24.4292 53.4606 24.6647C53.0647 26.6895 52.8632 28.747 52.8589 30.8096C52.8589 34.9432 53.6797 39.0363 55.2743 42.8547C56.869 46.6731 59.2062 50.142 62.1523 53.0629C65.0984 55.9838 68.5956 58.2995 72.4439 59.8775C76.2922 61.4555 80.4161 62.2648 84.5797 62.2592H85.9981C99.7579 62.2592 112.956 56.8413 122.698 47.1938C132.439 37.5463 137.929 24.4568 137.964 10.7962Z" fill="#3C8533"/>
</svg>
