<svg width="510" height="511" viewBox="0 0 510 511" fill="none" xmlns="http://www.w3.org/2000/svg">
<path d="M306.566 207.111H204.304C200.154 207.111 196.706 203.925 196.232 199.802C191.482 158.509 178.833 136.394 176.469 132.611C173.969 128.611 172.469 126.611 176.469 119.111C179.489 113.45 185.713 113.575 188.926 114.448C189.291 114.547 189.639 114.696 189.978 114.865L225.312 132.532C228.392 134.072 232.111 133.469 234.546 131.034L247.409 118.171C247.782 117.799 248.105 117.379 248.482 117.011C249.547 115.973 251.839 114.611 255.469 114.611C259.869 114.611 262.969 116.611 263.969 117.611L276.869 130.89C279.308 133.401 283.096 134.034 286.22 132.453L321.02 114.838C321.319 114.687 321.627 114.553 321.95 114.467C323.606 114.023 329.176 112.975 332.969 117.611C337.469 123.111 337.469 129.111 334.969 132.611C325.356 146.07 317.47 178.985 314.754 199.761C314.212 203.904 310.744 207.111 306.566 207.111Z" fill="#FFA300"/>
<path d="M322.999 231.111H188.424C186.128 231.111 183.899 232.146 182.384 233.871C109.843 316.481 111.144 333.383 104.813 376.111C96.8134 430.111 147.813 515.611 258.313 510.111C368.813 504.611 404.813 447.611 405.813 376.111C406.587 320.786 353.943 263.964 329.227 234.058C327.69 232.198 325.412 231.111 322.999 231.111Z" fill="#FFA300"/>
<path d="M253.469 415.065C244.915 415.065 236.653 414.1 228.683 412.171C223.671 410.958 219.216 409.516 215.318 407.845C211.601 406.251 210.237 401.869 211.883 398.173L216.472 387.868C218.402 383.533 223.657 381.851 228.039 383.672C230.656 384.759 233.398 385.723 236.265 386.562C242.291 388.202 248.123 389.022 253.761 389.022C257.066 389.022 259.641 388.829 261.488 388.443C263.432 387.961 264.842 387.334 265.716 386.562C266.591 385.694 267.029 384.682 267.029 383.524C267.029 381.691 266.008 380.245 263.967 379.184C261.926 378.123 259.204 377.255 255.802 376.579C252.497 375.808 248.852 375.036 244.867 374.265C240.882 373.396 236.848 372.287 232.765 370.937C228.78 369.587 225.087 367.802 221.685 365.584C218.38 363.365 215.707 360.472 213.666 356.903C211.624 353.238 210.604 348.704 210.604 343.303C210.604 337.033 212.353 331.343 215.853 326.23C219.449 321.022 224.746 316.874 231.745 313.788C238.84 310.701 247.637 309.158 258.135 309.158C265.036 309.158 271.84 309.882 278.547 311.328C282.69 312.222 286.573 313.41 290.196 314.893C293.961 316.433 295.44 320.817 293.871 324.569L289.567 334.854C287.784 339.116 282.784 340.936 278.462 339.303C276.124 338.42 273.82 337.68 271.548 337.082C266.883 335.828 262.314 335.201 257.843 335.201C254.538 335.201 251.914 335.49 249.97 336.069C248.026 336.647 246.616 337.419 245.742 338.384C244.964 339.348 244.575 340.409 244.575 341.567C244.575 343.303 245.596 344.701 247.637 345.762C249.678 346.727 252.351 347.547 255.656 348.222C259.058 348.897 262.752 349.621 266.737 350.392C270.819 351.164 274.853 352.225 278.838 353.575C282.824 354.926 286.469 356.71 289.773 358.928C293.175 361.147 295.897 364.04 297.938 367.609C299.979 371.178 301 375.615 301 380.92C301 387.093 299.202 392.784 295.605 397.992C292.106 403.104 286.857 407.252 279.859 410.435C272.861 413.521 264.064 415.065 253.469 415.065ZM254.471 430.111C250.052 430.111 246.471 426.53 246.471 422.111V419.303C246.471 414.885 250.052 411.303 254.471 411.303H259.029C263.447 411.303 267.029 414.885 267.029 419.303V422.111C267.029 426.53 263.447 430.111 259.029 430.111H254.471ZM254.471 312.92C250.052 312.92 246.471 309.338 246.471 304.92V302.111C246.471 297.693 250.052 294.111 254.471 294.111H259.029C263.447 294.111 267.029 297.693 267.029 302.111V304.92C267.029 309.338 263.447 312.92 259.029 312.92H254.471Z" fill="#2F6A28"/>
</svg>
